 <svg version="1.0" xmlns="http://www.w3.org/2000/svg" width="700.000000pt" height="394.000000pt" viewBox="0 0 700.000000 394.000000" preserveAspectRatio="xMidYMid meet">
<metadata>
Created by potrace 1.12, written by Peter Selinger 2001-2015
</metadata>
<g transform="translate(0.000000,394.000000) scale(0.100000,-0.100000)" fill="#000000" stroke="none">
<path d="M3836 3924 c-10 -26 -7 -32 22 -38 28 -7 192 -57 272 -83 24 -8 50
-19 57 -25 9 -7 17 -7 27 1 11 9 26 8 68 -5 29 -9 57 -21 62 -25 6 -5 21 -9
35 -9 37 0 71 -11 71 -22 0 -5 -8 -7 -19 -3 -13 4 -26 -4 -45 -29 -14 -19 -26
-39 -26 -45 0 -19 -171 22 -206 50 -13 11 -436 149 -455 149 -34 0 21 -23 201
-84 107 -36 203 -66 213 -66 12 0 17 -6 15 -17 -4 -19 -11 -20 -65 -8 -19 4
-33 3 -33 -2 0 -12 85 -34 105 -27 8 3 15 1 15 -5 0 -6 7 -8 17 -4 10 4 14 2
10 -4 -4 -6 3 -14 16 -18 22 -8 21 -8 -4 -12 -14 -2 -43 -22 -65 -44 l-38 -39
30 0 c21 0 40 10 65 36 26 27 40 34 59 30 18 -3 33 3 52 22 l28 26 93 -32 c96
-33 117 -37 117 -24 0 4 -23 14 -52 22 -51 15 -77 40 -40 40 10 0 45 -9 77
-20 65 -22 75 -24 75 -12 0 5 -34 19 -74 31 -79 22 -90 30 -80 54 5 13 19 10
96 -15 75 -26 95 -29 111 -19 15 10 22 10 35 -2 10 -8 42 -22 72 -31 30 -9 63
-21 72 -27 23 -12 31 -12 23 1 -3 6 -1 10 4 10 19 0 12 30 -6 32 -30 2 -37 4
-75 21 -21 9 -38 21 -38 26 0 6 -7 11 -15 11 -8 0 -15 5 -15 10 0 13 6 13 32
-1 18 -10 20 -9 15 6 -4 9 -7 28 -7 42 0 26 0 26 -21 7 -12 -10 -25 -29 -30
-41 -11 -30 -34 -29 -138 6 -47 16 -91 27 -98 24 -7 -3 -13 -1 -13 5 0 5 -27
17 -60 26 -56 16 -79 30 -67 43 3 3 28 -2 54 -12 82 -29 103 -34 103 -25 0 5
-30 18 -67 30 -81 27 -88 32 -74 57 10 20 12 19 101 -10 83 -27 93 -28 107
-14 15 14 20 14 62 -7 59 -30 118 -49 134 -43 15 5 -45 37 -71 37 -24 0 -48
25 -32 35 5 3 10 17 10 31 0 30 9 30 100 -1 66 -22 75 -23 90 -10 23 21 41 19
136 -12 76 -24 114 -26 114 -5 0 5 -12 10 -27 10 -15 0 -29 5 -31 11 -2 6 -8
9 -13 5 -5 -3 -9 0 -9 7 0 6 -8 9 -20 6 -14 -3 -24 1 -31 15 -9 16 -17 19 -42
13 -18 -3 -41 -6 -52 -5 -11 0 -75 3 -142 6 -116 5 -121 5 -128 -15 -10 -32
-43 -34 -124 -6 -44 15 -97 25 -129 25 -56 0 -68 -8 -19 -12 32 -3 35 -13 7
-21 -11 -3 -29 -21 -41 -41 -11 -20 -24 -36 -27 -36 -3 0 -60 18 -127 39 -234
76 -278 84 -289 55z m1084 -4 c0 -5 -4 -10 -10 -10 -5 0 -10 5 -10 10 0 6 5
10 10 10 6 0 10 -4 10 -10z m-310 -30 c0 -5 -4 -10 -10 -10 -5 0 -10 5 -10 10
0 6 5 10 10 10 6 0 10 -4 10 -10z m-200 -240 c0 -5 -4 -10 -10 -10 -5 0 -10 5
-10 10 0 6 5 10 10 10 6 0 10 -4 10 -10z"></path>
<path d="M5073 3922 c44 -15 49 -14 64 1 16 16 13 17 -47 16 l-65 -1 48 -16z"></path>
<path d="M5345 3885 c109 -36 164 -50 172 -43 17 14 33 1 33 -28 0 -37 18 -29
29 14 18 61 12 80 -14 46 -11 -15 -20 -14 -111 11 -54 15 -111 34 -126 41 -15
8 -53 14 -85 13 l-58 -1 160 -53z"></path>
<path d="M5580 3919 c0 -18 2 -19 15 -9 8 7 15 16 15 21 0 5 -7 9 -15 9 -9 0
-15 -9 -15 -21z"></path>
<path d="M5689 3918 c-18 -34 -110 -148 -119 -148 -5 0 -18 -19 -29 -42 -11
-24 -45 -74 -76 -113 -30 -38 -60 -81 -65 -94 -6 -13 -35 -64 -65 -112 -58
-93 -60 -99 -46 -99 10 0 114 161 129 201 6 14 31 50 57 80 26 29 61 77 78
105 18 29 60 87 95 129 34 43 62 86 62 96 0 25 -7 24 -21 -3z"></path>
<path d="M4660 3872 c0 -4 27 -18 60 -30 76 -27 79 -12 4 17 -63 24 -64 24
-64 13z"></path>
<path d="M5086 3852 c-4 -3 -16 -27 -28 -52 -15 -31 -22 -40 -25 -27 -4 17
-23 25 -23 9 0 -5 -6 -16 -13 -25 -11 -16 -18 -15 -101 13 -106 36 -123 37
-131 9 -4 -11 -5 -22 -3 -23 1 -2 40 -15 85 -30 55 -19 90 -25 105 -20 13 4
28 7 33 5 6 -2 90 -28 189 -58 136 -42 180 -52 186 -43 10 17 40 5 40 -15 0
-25 19 -17 26 10 4 14 5 27 3 29 -2 1 -49 15 -104 30 -55 15 -134 40 -175 54
-62 22 -76 31 -78 51 -6 38 9 41 78 17 36 -13 74 -27 85 -31 11 -4 29 -11 40
-15 11 -5 48 -17 83 -27 46 -13 62 -22 62 -35 0 -28 17 -21 24 10 4 15 9 35
12 45 4 13 0 17 -17 17 -23 0 -299 84 -330 100 -9 5 -20 6 -23 2z m147 -178
c15 -4 27 -10 27 -15 0 -4 -21 -1 -47 8 -52 17 -74 30 -33 19 14 -3 37 -9 53
-12z m102 -42 c-3 -3 -11 0 -18 7 -9 10 -8 11 6 5 10 -3 15 -9 12 -12z"></path>
<path d="M3810 3842 c0 -6 66 -31 148 -57 81 -25 158 -50 171 -56 16 -6 27 -7
34 0 6 6 -8 15 -39 24 -27 9 -101 31 -164 51 -63 20 -123 39 -132 42 -10 3
-18 1 -18 -4z"></path>
<path d="M3435 3824 c-11 -3 -23 -9 -28 -13 -10 -10 135 -43 170 -40 33 4 36
-5 15 -48 -16 -34 -26 -40 -37 -23 -7 11 -35 -5 -35 -20 0 -15 82 -30 167 -30
49 0 92 -3 96 -6 3 -4 0 -19 -8 -35 -20 -37 -19 -49 4 -49 12 0 28 16 44 45
l26 45 -24 0 c-13 0 -27 5 -30 10 -3 6 -23 10 -43 10 -20 0 -56 7 -79 16 -51
20 -64 50 -38 90 11 17 13 30 7 36 -10 10 -176 20 -207 12z"></path>
<path d="M3180 3711 c-84 -47 -146 -90 -221 -153 -94 -78 -61 -69 52 15 56 41
138 96 181 122 43 25 78 48 78 51 0 11 -30 -1 -90 -35z"></path>
<path d="M4766 3681 c12 -11 72 -31 92 -31 25 0 1 16 -44 28 -49 14 -61 15
-48 3z"></path>
<path d="M3483 3633 c-19 -4 -23 -11 -23 -39 0 -27 5 -37 23 -43 28 -11 33 -5
42 47 7 44 7 44 -42 35z"></path>
<path d="M3896 3600 c-31 -47 -32 -50 -7 -50 21 0 83 68 75 82 -12 20 -43 5
-68 -32z"></path>
<path d="M3650 3604 c-14 -35 -13 -44 4 -44 16 0 46 37 46 57 0 24 -40 14 -50
-13z"></path>
<path d="M3354 3610 c-18 -7 -21 -14 -15 -42 6 -27 12 -33 31 -33 22 0 25 4
25 39 0 42 -8 49 -41 36z"></path>
<path d="M4012 3581 c-38 -47 -39 -51 -9 -51 32 0 91 62 75 78 -20 20 -33 14
-66 -27z"></path>
<path d="M4887 3613 c-4 -3 -7 -13 -7 -22 0 -12 28 -24 98 -45 53 -16 108 -36
122 -44 13 -8 40 -16 60 -18 20 -1 52 -12 71 -23 19 -12 37 -21 41 -21 6 0 31
62 26 65 -2 1 -23 6 -48 12 -41 11 -286 81 -336 97 -11 3 -23 3 -27 -1z"></path>
<path d="M3227 3577 c-15 -10 -16 -17 -8 -40 22 -57 72 -44 55 14 -11 38 -23
44 -47 26z"></path>
<path d="M4804 3535 c-32 -43 -50 -44 -162 -6 l-83 27 -6 -24 c-4 -16 -10 -21
-22 -17 -32 13 -71 17 -71 9 0 -13 186 -65 205 -58 8 4 22 1 30 -6 13 -10 19
-9 36 6 21 19 24 18 233 -54 195 -67 246 -78 246 -51 0 5 -8 9 -17 9 -20 0
-262 77 -283 90 -8 5 -11 12 -8 16 4 4 72 -14 150 -39 79 -25 153 -48 166 -52
13 -4 22 -14 21 -23 -3 -30 1 -42 12 -42 6 0 9 9 6 20 -3 11 -1 23 4 26 13 8
11 24 -3 29 -7 2 -96 29 -198 60 -186 57 -249 87 -219 106 9 5 10 9 2 9 -7 0
-24 -16 -39 -35z"></path>
<path d="M4246 3525 c-50 -39 -58 -55 -25 -55 21 0 109 57 109 71 0 6 -24 19
-34 19 -2 0 -24 -16 -50 -35z"></path>
<path d="M3095 3543 c-27 -7 -44 -23 -23 -23 9 0 23 -11 32 -25 10 -16 26 -25
41 -25 29 0 29 2 13 47 -12 32 -21 36 -63 26z"></path>
<path d="M3530 3520 c0 -5 7 -10 15 -10 8 0 15 5 15 10 0 6 -7 10 -15 10 -8 0
-15 -4 -15 -10z"></path>
<path d="M3660 3523 c0 -10 239 -25 249 -16 13 11 -22 16 -129 21 -78 3 -120
1 -120 -5z"></path>
<path d="M2981 3494 l-23 -16 27 -28 c18 -19 33 -26 50 -22 30 5 30 3 4 46
-24 41 -26 42 -58 20z"></path>
<path d="M3930 3503 c0 -5 30 -15 66 -22 36 -6 101 -23 146 -37 44 -14 82 -23
85 -20 7 7 -30 21 -132 51 -101 29 -165 40 -165 28z"></path>
<path d="M4348 3479 c-52 -34 -60 -49 -27 -49 27 0 120 52 116 65 -7 21 -44
14 -89 -16z"></path>
<path d="M3490 3463 c-452 -74 -736 -236 -1002 -571 -33 -43 -64 -87 -68 -99
-5 -11 -14 -24 -19 -28 -6 -3 -11 -13 -11 -21 0 -8 -14 -44 -31 -79 -17 -36
-29 -70 -26 -77 3 -7 10 0 16 17 64 159 245 396 395 514 218 171 356 237 621
296 118 27 236 37 251 23 4 -5 0 -16 -9 -26 -18 -20 -22 -42 -8 -42 5 0 11 9
14 20 7 25 52 27 66 3 5 -10 13 -15 16 -11 4 4 -5 19 -19 33 -14 14 -26 28
-26 32 0 8 203 -1 218 -11 11 -6 10 -12 -3 -26 -19 -21 -17 -51 3 -58 9 -3 13
3 10 19 -2 18 2 25 19 27 16 2 22 -3 25 -19 4 -26 28 -38 28 -14 0 8 -7 27
-16 40 -16 24 -16 25 10 25 54 0 23 18 -49 29 -71 10 -349 13 -405 4z"></path>
<path d="M4458 3429 c-96 -49 -66 -69 36 -24 57 25 68 38 40 49 -19 7 -8 11
-76 -25z"></path>
<path d="M2863 3443 c-21 -8 -15 -28 16 -51 18 -13 37 -19 50 -15 28 7 27 14
-7 46 -28 27 -36 30 -59 20z"></path>
<path d="M3990 3430 c-9 -6 -10 -10 -3 -10 6 0 19 -3 27 -6 12 -5 15 -2 10 10
-7 18 -13 20 -34 6z"></path>
<path d="M4625 3430 c-3 -5 -1 -10 4 -10 6 0 11 5 11 10 0 6 -2 10 -4 10 -3 0
-8 -4 -11 -10z"></path>
<path d="M3740 3411 c-13 -25 -13 -31 0 -31 6 0 10 7 10 15 0 8 5 15 10 15 6
0 10 -6 10 -14 0 -20 13 -27 30 -16 12 7 11 12 -4 29 -24 26 -42 27 -56 2z"></path>
<path d="M4240 3415 c0 -2 39 -24 88 -49 221 -115 391 -286 490 -493 20 -42
38 -71 40 -65 2 7 -10 42 -27 78 -96 205 -275 384 -493 495 -72 36 -98 45 -98
34z"></path>
<path d="M3525 3400 c-19 -8 -19 -9 2 -9 12 -1 23 -7 26 -13 2 -7 8 -10 13 -5
14 13 -19 36 -41 27z"></path>
<path d="M4673 3393 c-4 -11 3 -24 22 -39 22 -17 26 -24 15 -28 -8 -3 -39 -14
-69 -24 -53 -18 -80 -42 -47 -42 9 0 22 -11 28 -25 6 -14 14 -25 17 -25 13 1
153 39 157 43 3 3 -12 19 -33 36 -21 17 -34 31 -29 31 4 0 26 -15 49 -34 23
-19 56 -38 72 -42 17 -4 35 -10 40 -14 6 -4 39 -17 74 -29 l64 -22 33 32 c19
18 32 35 29 37 -2 2 -39 17 -82 32 -179 64 -229 83 -238 90 -5 4 -25 11 -42
15 -18 3 -33 11 -33 16 0 15 -20 10 -27 -8z m107 -52 c0 -5 -9 -7 -20 -4 -11
3 -20 7 -20 9 0 2 9 4 20 4 11 0 20 -4 20 -9z"></path>
<path d="M4010 3389 c0 -5 -7 -9 -15 -9 -17 0 -21 -35 -5 -45 9 -6 14 8 11 28
0 4 8 7 18 7 27 0 35 17 11 23 -11 3 -20 1 -20 -4z"></path>
<path d="M4610 3392 c-8 -3 -39 -16 -69 -29 -41 -18 -52 -26 -43 -35 8 -8 29
-5 82 13 38 13 70 26 70 30 0 13 -25 26 -40 21z"></path>
<path d="M2754 3375 c-19 -14 -18 -15 6 -35 25 -20 75 -27 84 -12 4 7 -55 62
-67 62 -2 0 -12 -7 -23 -15z"></path>
<path d="M3640 3375 c0 -8 5 -15 10 -15 6 0 10 7 10 15 0 8 -4 15 -10 15 -5 0
-10 -7 -10 -15z"></path>
<path d="M4037 3350 c-6 -23 3 -26 21 -8 16 16 15 28 -2 28 -7 0 -16 -9 -19
-20z"></path>
<path d="M4096 3345 c-3 -8 -2 -15 3 -15 5 0 14 7 21 15 10 12 10 15 -3 15 -8
0 -17 -7 -21 -15z"></path>
<path d="M4224 3335 c0 -26 11 -33 19 -12 3 7 6 6 6 -5 1 -9 5 -20 11 -23 6
-3 7 1 4 10 -5 13 -2 14 20 6 118 -45 285 -177 395 -311 18 -22 20 -23 21 -6
0 27 -182 205 -266 259 -70 45 -187 107 -202 107 -4 0 -8 -11 -8 -25z"></path>
<path d="M4168 3314 c3 -19 7 -22 13 -12 13 20 11 38 -5 38 -9 0 -12 -8 -8
-26z"></path>
<path d="M3525 3319 c-117 -14 -262 -52 -370 -98 -11 -5 -33 -14 -50 -20 -16
-7 -38 -18 -49 -26 -18 -14 -18 -15 2 -39 10 -14 22 -22 26 -19 3 4 -1 15 -10
24 -16 17 -15 19 2 25 16 5 50 19 76 32 5 2 12 -8 18 -23 5 -14 14 -23 20 -20
7 4 7 13 0 26 -9 15 -7 20 7 25 16 5 55 22 74 32 4 1 9 -4 13 -13 4 -12 -4
-20 -29 -31 -53 -22 -42 -34 15 -16 45 14 67 32 40 32 -5 0 -10 9 -10 19 0 14
9 20 33 23 17 3 38 7 46 9 9 2 17 -6 21 -21 7 -26 15 -17 22 24 2 11 7 20 13
20 17 2 34 -67 40 -166 4 -57 11 -98 17 -98 10 0 4 166 -8 216 -5 19 -1 22 38
26 24 3 48 1 55 -4 15 -12 33 -2 33 18 0 8 7 14 15 14 8 0 15 -7 15 -15 0 -8
5 -15 10 -15 6 0 10 11 10 25 0 29 7 31 32 8 17 -15 19 -15 38 2 17 16 20 16
26 2 3 -9 3 -20 0 -26 -4 -5 -2 -12 4 -16 6 -4 13 7 16 24 7 34 18 40 28 15 4
-10 16 -14 38 -12 26 2 33 -1 32 -14 -2 -24 13 -23 21 2 6 19 35 29 35 11 0
-5 14 -11 31 -15 22 -4 30 -10 25 -21 -6 -17 9 -21 19 -5 11 18 37 11 31 -8
-8 -25 39 -49 60 -31 10 8 14 8 14 1 0 -6 10 -17 23 -23 18 -9 20 -9 10 2 -19
19 -16 29 8 29 17 0 19 -4 13 -22 -6 -22 -6 -22 13 -5 25 22 33 22 33 -3 0
-12 5 -17 14 -14 18 7 82 -30 78 -46 -2 -8 3 -10 14 -6 22 8 87 -32 80 -50 -4
-11 1 -13 18 -8 14 3 27 -1 35 -10 8 -9 20 -16 27 -16 17 0 18 -22 2 -38 -14
-14 1 -16 21 -3 14 9 24 6 60 -18 12 -8 13 -12 1 -26 -9 -11 -10 -19 -2 -27 6
-6 8 -18 5 -27 -4 -14 -3 -14 9 1 23 27 46 25 73 -7 13 -16 24 -25 25 -18 0
17 -100 129 -163 183 -100 85 -239 167 -295 174 -15 1 -39 10 -52 18 -33 20
-108 43 -192 58 -37 7 -65 16 -62 21 3 5 -2 9 -11 9 -9 0 -13 -5 -9 -11 5 -8
-5 -10 -32 -5 -71 12 -248 14 -329 5z m1055 -399 c0 -5 -2 -10 -4 -10 -3 0 -8
5 -11 10 -3 6 -1 10 4 10 6 0 11 -4 11 -10z"></path>
<path d="M2645 3306 c-18 -13 -17 -15 15 -35 38 -23 57 -26 80 -11 16 10 17 9
-31 38 -43 26 -40 26 -64 8z"></path>
<path d="M2850 3294 c-148 -84 -342 -269 -448 -425 -45 -67 -116 -214 -140
-289 -41 -130 -47 -173 -47 -330 0 -129 4 -169 23 -239 13 -46 28 -93 33 -103
21 -40 19 -8 -6 77 -35 121 -41 289 -15 440 20 113 49 212 75 252 8 12 15 28
15 36 0 7 13 33 28 58 16 24 46 72 68 106 25 40 46 63 58 63 13 0 16 5 12 17
-4 10 5 27 26 48 18 18 51 52 73 75 47 49 144 128 233 189 34 24 62 45 62 47
0 6 -2 5 -50 -22z"></path>
<path d="M4100 3308 c0 -9 5 -20 11 -23 17 -11 20 0 4 21 -13 17 -14 17 -15 2z"></path>
<path d="M5140 3285 c-10 -13 -9 -15 10 -15 13 0 61 -21 107 -46 68 -37 87
-43 99 -34 7 7 14 16 14 20 0 5 -34 27 -75 49 -78 43 -133 53 -155 26z"></path>
<path d="M3820 3250 c0 -5 7 -10 15 -10 8 0 15 5 15 10 0 6 -7 10 -15 10 -8 0
-15 -4 -15 -10z"></path>
<path d="M4280 3250 c0 -5 5 -10 10 -10 6 0 10 5 10 10 0 6 -4 10 -10 10 -5 0
-10 -4 -10 -10z"></path>
<path d="M3940 3240 c0 -5 5 -10 10 -10 6 0 10 5 10 10 0 6 -4 10 -10 10 -5 0
-10 -4 -10 -10z"></path>
<path d="M2547 3233 c-16 -15 -4 -31 32 -43 68 -22 97 4 36 33 -38 18 -58 21
-68 10z"></path>
<path d="M3015 3231 c-6 -11 9 -23 19 -14 9 9 7 23 -3 23 -6 0 -12 -4 -16 -9z"></path>
<path d="M3344 3215 c-18 -14 -18 -14 3 -15 23 0 39 15 25 24 -5 3 -18 -1 -28
-9z"></path>
<path d="M4760 3201 c-54 -15 -64 -21 -62 -37 2 -10 6 -21 8 -23 6 -7 174 21
180 30 4 7 -49 51 -58 48 -1 0 -32 -9 -68 -18z"></path>
<path d="M5400 3176 c0 -9 5 -16 10 -16 6 0 10 4 10 9 0 6 -4 13 -10 16 -5 3
-10 -1 -10 -9z"></path>
<path d="M4983 3132 c-29 -36 -31 -36 -50 -19 -18 16 -27 16 -97 5 -69 -10
-77 -14 -74 -32 3 -20 9 -21 88 -18 91 3 115 13 154 65 31 42 13 41 -21 -1z"></path>
<path d="M2449 3144 c-16 -20 -3 -29 54 -38 29 -5 45 -3 56 8 12 13 12 16 0
20 -8 2 -29 9 -48 15 -44 14 -46 14 -62 -5z"></path>
<path d="M3987 3153 c-4 -3 -7 -13 -7 -22 1 -13 3 -13 11 2 11 19 8 33 -4 20z"></path>
<path d="M3115 3140 c-3 -5 3 -10 14 -10 12 0 21 5 21 10 0 6 -6 10 -14 10 -8
0 -18 -4 -21 -10z"></path>
<path d="M2977 3122 c-10 -10 -17 -23 -17 -29 0 -6 -8 -9 -19 -6 -18 5 -51
-20 -51 -39 0 -5 14 -15 30 -21 18 -7 30 -19 30 -30 0 -22 158 -219 170 -212
19 11 -12 68 -85 159 -43 53 -81 96 -86 96 -5 0 -9 5 -9 11 0 6 6 9 13 6 22
-8 46 11 40 33 -4 14 0 20 11 20 9 0 16 -5 16 -10 0 -14 101 -149 134 -179 47
-44 27 -11 -44 72 -38 45 -70 90 -70 99 0 17 -25 48 -39 48 -4 0 -15 -8 -24
-18z"></path>
<path d="M3907 3123 c-11 -10 -8 -43 3 -43 6 0 10 11 10 25 0 26 -2 29 -13 18z"></path>
<path d="M5396 3093 c-3 -21 -9 -48 -12 -60 -4 -13 -2 -23 3 -23 5 0 15 23 21
51 14 61 15 69 3 69 -5 0 -11 -17 -15 -37z"></path>
<path d="M3570 3105 c0 -8 5 -15 10 -15 6 0 10 7 10 15 0 8 -4 15 -10 15 -5 0
-10 -7 -10 -15z"></path>
<path d="M4106 3094 c-8 -21 -8 -24 3 -24 12 0 22 28 12 35 -5 3 -12 -2 -15
-11z"></path>
<path d="M2372 3058 c-20 -20 -14 -26 38 -33 50 -7 92 8 73 25 -16 15 -98 21
-111 8z"></path>
<path d="M4125 3030 c-14 -16 -15 -20 -4 -20 16 0 39 19 39 32 0 14 -16 9 -35
-12z"></path>
<path d="M2794 3011 c-78 -57 -254 -258 -254 -289 0 -15 35 -33 45 -24 4 4 5
-4 2 -18 l-6 -25 19 25 c21 27 18 40 -10 40 -26 0 -35 19 -18 36 11 12 21 13
44 4 l29 -10 -23 20 -24 19 33 40 c32 37 34 38 59 24 23 -14 23 -14 6 0 -18
15 -17 17 19 52 30 28 41 33 52 24 7 -7 17 -8 21 -4 4 4 1 10 -5 12 -20 7 -15
31 6 38 11 3 27 17 36 31 l16 25 19 -23 c11 -13 19 -18 20 -12 0 11 -31 44
-42 44 -3 0 -23 -13 -44 -29z"></path>
<path d="M3890 3025 c0 -8 5 -15 10 -15 6 0 10 7 10 15 0 8 -4 15 -10 15 -5 0
-10 -7 -10 -15z"></path>
<path d="M4920 3033 c-89 -9 -101 -13 -98 -36 3 -21 7 -22 98 -19 52 2 96 5
98 7 9 8 -32 55 -47 53 -9 0 -32 -3 -51 -5z"></path>
<path d="M5290 3005 c0 -8 5 -15 10 -15 6 0 10 7 10 15 0 8 -4 15 -10 15 -5 0
-10 -7 -10 -15z"></path>
<path d="M3493 2983 c-10 -25 6 -43 37 -43 38 0 70 16 70 34 0 19 -100 26
-107 9z"></path>
<path d="M5366 2949 c-6 -38 -2 -59 8 -48 10 10 17 89 8 89 -5 0 -12 -19 -16
-41z"></path>
<path d="M3880 2961 c0 -11 12 -29 26 -40 28 -22 54 -27 54 -11 0 6 -7 10 -15
10 -9 0 -24 13 -33 30 -20 34 -32 39 -32 11z"></path>
<path d="M2372 2953 c3 -15 -6 -19 -51 -21 -51 -3 -80 -19 -81 -45 0 -4 30 -7
67 -5 58 3 68 6 72 23 2 11 12 26 22 33 26 18 24 32 -6 32 -19 0 -25 -5 -23
-17z"></path>
<path d="M3920 2960 c0 -5 6 -10 13 -10 6 0 23 -3 37 -6 24 -5 24 -5 6 10 -22
18 -56 21 -56 6z"></path>
<path d="M4650 2961 c0 -5 7 -11 15 -15 9 -3 15 0 15 9 0 8 -7 15 -15 15 -8 0
-15 -4 -15 -9z"></path>
<path d="M5280 2923 c0 -28 3 -34 10 -23 13 20 13 60 0 60 -5 0 -10 -17 -10
-37z"></path>
<path d="M4898 2933 c-22 -3 -28 -10 -28 -29 0 -24 0 -24 106 -24 110 0 112 1
76 43 -15 17 -80 21 -154 10z"></path>
<path d="M4526 2905 c4 -8 11 -15 16 -15 6 0 5 6 -2 15 -7 8 -14 15 -16 15 -2
0 -1 -7 2 -15z"></path>
<path d="M5262 2768 c-27 -257 -46 -398 -54 -398 -4 0 -9 19 -10 43 0 23 -2
74 -4 112 -3 94 -18 145 -52 178 -24 23 -39 27 -115 33 l-87 7 0 -25 c0 -25 3
-26 108 -39 l107 -14 2 -30 c1 -16 6 -66 11 -110 6 -44 9 -81 7 -83 -1 -2 -49
9 -105 23 -56 14 -104 24 -107 21 -12 -12 20 -44 54 -54 21 -6 63 -18 95 -27
45 -13 57 -21 62 -41 4 -14 4 -29 1 -34 -3 -5 -51 7 -107 26 -56 18 -104 32
-106 29 -3 -3 -1 -15 5 -27 8 -17 33 -30 97 -51 70 -23 89 -33 97 -53 21 -56
6 -57 -119 -5 -51 21 -94 36 -96 32 -13 -22 19 -50 91 -80 43 -18 84 -38 91
-43 14 -12 16 -68 2 -68 -6 0 -51 20 -100 45 -49 25 -95 45 -100 45 -6 0 -10
-10 -8 -22 2 -18 25 -35 96 -71 84 -44 92 -50 92 -77 0 -16 -3 -31 -7 -33 -5
-3 -48 17 -98 45 -118 66 -115 65 -115 35 0 -22 13 -34 83 -74 77 -46 82 -51
85 -86 2 -21 -1 -37 -7 -37 -6 0 -53 27 -104 60 -52 33 -97 60 -100 60 -4 0
-7 -11 -7 -23 0 -19 19 -37 85 -82 85 -58 85 -59 79 -94 -4 -20 -19 -45 -35
-58 -15 -13 -31 -37 -34 -54 -4 -19 -18 -37 -36 -48 -16 -9 -35 -33 -44 -54
-8 -21 -26 -42 -40 -49 -18 -8 -23 -17 -19 -32 4 -16 -8 -34 -48 -72 -73 -71
-227 -186 -239 -178 -5 3 -9 2 -8 -3 3 -19 -2 -33 -13 -33 -19 0 -108 -61
-103 -71 7 -10 -59 -44 -176 -92 -95 -39 -145 -55 -116 -37 9 6 17 18 17 27 0
10 -6 14 -17 10 -10 -2 -24 -6 -32 -8 -9 -3 -25 29 -50 105 -21 61 -41 111
-47 113 -5 1 -18 -4 -28 -12 -19 -15 -19 -16 7 -108 15 -51 27 -98 27 -105 0
-14 -48 -47 -56 -39 -3 3 -15 41 -25 84 -43 167 -37 154 -64 141 -31 -14 -31
-34 -5 -143 l19 -80 -22 -17 c-12 -10 -27 -18 -34 -18 -12 0 -13 4 -39 147 -9
51 -18 93 -20 93 -9 0 -54 -24 -54 -29 0 -3 7 -49 15 -101 15 -93 14 -95 -6
-112 -36 -30 -46 -22 -53 42 -3 33 -9 87 -12 120 -5 46 -10 60 -23 60 -40 -1
-43 -13 -36 -123 l7 -106 -27 -13 c-39 -18 -45 -1 -45 130 0 61 -2 112 -4 112
-3 0 -16 -4 -30 -10 -26 -9 -26 -11 -26 -113 0 -88 -3 -106 -18 -120 -10 -10
-27 -17 -38 -17 -18 0 -19 6 -13 127 3 71 5 130 3 131 -1 2 -16 1 -32 -3 l-29
-6 -7 -110 c-7 -100 -5 -112 11 -125 17 -12 16 -13 -9 -14 -20 0 -26 4 -22 15
4 8 1 15 -5 15 -6 0 -11 -5 -11 -11 0 -22 -239 13 -253 36 -4 8 -18 15 -31 15
-13 0 -35 9 -49 20 -15 12 -40 20 -64 20 -56 0 -84 10 -81 29 2 12 -6 16 -37
17 -38 1 -86 18 -130 46 -162 105 -255 181 -255 209 0 10 27 56 59 102 44 61
58 90 54 106 -3 11 -9 21 -14 21 -5 0 -37 -38 -71 -85 -34 -47 -67 -84 -72
-82 -6 2 -15 15 -20 29 -8 23 -2 35 52 100 46 56 59 80 55 97 -3 11 -9 21 -14
21 -4 0 -38 -36 -76 -80 -37 -44 -71 -80 -76 -80 -4 0 -12 12 -17 26 -9 24 -5
33 55 99 58 66 76 101 59 117 -3 4 -40 -30 -81 -73 -42 -44 -80 -76 -84 -72
-4 4 -10 19 -14 33 -5 21 5 36 65 95 64 64 80 91 64 108 -4 4 -40 -25 -81 -63
-41 -39 -79 -70 -84 -70 -5 0 -12 12 -15 26 -6 23 2 34 66 93 55 50 71 71 69
88 -4 20 -11 16 -83 -42 -43 -36 -82 -62 -87 -59 -5 3 -9 17 -8 32 0 21 16 39
75 85 48 37 74 64 74 77 0 11 -2 20 -5 20 -3 0 -37 -23 -76 -51 -96 -68 -101
-70 -97 -28 3 29 12 40 73 82 65 44 96 79 83 93 -3 3 -42 -18 -87 -47 -45 -28
-83 -50 -85 -48 -2 2 -6 28 -8 56 l-5 53 76 41 c97 52 105 59 88 83 -13 17
-17 16 -83 -16 -38 -19 -76 -33 -85 -31 -13 3 -20 -17 -38 -114 -38 -202 -69
-472 -57 -487 6 -7 65 -51 131 -97 66 -45 126 -91 133 -101 7 -10 19 -18 25
-18 7 0 30 -9 52 -20 21 -11 41 -18 43 -15 10 9 -31 44 -64 55 -35 12 -44 36
-23 57 7 7 0 26 -24 64 -19 30 -42 70 -51 89 -9 19 -11 26 -4 16 77 -116 125
-187 149 -214 16 -18 29 -37 29 -42 0 -16 128 -138 193 -183 34 -24 106 -66
159 -93 54 -27 98 -55 98 -62 0 -9 -38 7 -104 42 -57 30 -106 52 -110 49 -22
-22 -1 -40 84 -72 49 -18 93 -38 99 -45 6 -7 4 -30 -5 -66 -8 -30 -14 -60 -14
-66 0 -17 211 -97 223 -85 7 7 6 12 -4 15 -178 64 -202 78 -165 92 15 6 135
-38 163 -59 9 -6 15 -4 19 7 9 23 4 26 -94 62 l-87 31 -1 39 c-2 52 1 56 39
40 18 -8 52 -19 77 -25 25 -6 86 -22 135 -35 166 -44 235 -57 343 -66 233 -20
342 -47 353 -90 l6 -25 11 27 c6 14 15 29 21 32 9 6 317 -84 343 -100 5 -3 66
48 135 113 69 65 201 185 292 267 91 82 219 203 283 268 l117 120 27 -21 c17
-14 31 -18 37 -12 12 12 0 31 -19 31 -21 0 -8 50 20 75 12 11 20 27 18 36 -1
9 4 22 13 29 13 11 23 11 55 0 22 -7 40 -17 40 -22 0 -4 5 -8 11 -8 25 0 -1
26 -42 41 -46 18 -58 37 -41 73 5 11 18 40 27 64 10 23 22 42 27 42 4 0 8 8 8
17 0 9 13 53 29 97 56 155 73 239 72 359 -1 35 13 51 22 25 6 -20 25 98 52
340 29 259 27 232 17 232 -5 0 -14 -51 -20 -112z m-402 -1282 c0 -2 -8 -10
-17 -17 -16 -13 -17 -12 -4 4 13 16 21 21 21 13z m-110 -109 c0 -13 -378 -376
-406 -390 -33 -17 -71 -19 -154 -7 -3 0 33 17 80 38 73 33 137 68 238 133 30
19 28 31 -5 23 -25 -7 -27 -6 -14 9 7 10 19 17 27 17 16 0 158 107 198 149 28
29 36 35 36 28z m-710 -437 c-18 -10 -167 -50 -187 -50 -7 0 -13 7 -13 16 0
12 6 15 23 11 12 -3 51 3 87 13 75 20 114 25 90 10z m-325 -100 c3 -5 -3 -10
-14 -10 -11 0 -23 5 -26 10 -3 6 3 10 14 10 11 0 23 -4 26 -10z"></path>
<path d="M4790 2860 c0 -5 7 -27 15 -47 16 -42 55 -189 55 -210 0 -7 -5 -13
-11 -13 -31 0 -54 -69 -28 -85 6 -4 9 -26 7 -49 -4 -48 16 -66 20 -18 2 17 7
32 13 32 11 0 11 -24 -1 -75 -5 -22 -14 -69 -20 -104 -6 -35 -17 -73 -25 -85
-8 -11 -15 -33 -15 -48 0 -15 -21 -68 -46 -118 l-47 -90 -34 6 c-32 6 -35 5
-29 -13 8 -24 -15 -46 -38 -37 -9 3 -16 1 -16 -5 0 -21 31 -24 45 -5 27 37 27
3 0 -36 -31 -45 -29 -44 -58 -29 -18 9 -20 9 -9 -2 6 -7 12 -20 12 -29 0 -25
-48 -66 -73 -61 -21 3 -21 2 -4 -17 17 -19 17 -20 -22 -51 -23 -19 -42 -27
-46 -21 -9 15 -26 12 -23 -3 4 -17 -54 -67 -76 -67 -9 0 -16 -7 -16 -15 0 -20
10 -19 40 5 14 11 33 20 43 20 10 0 20 6 23 14 3 8 25 30 48 48 92 72 234 255
302 391 81 158 123 375 104 534 -11 94 -35 187 -64 256 -16 36 -26 47 -26 27z
m80 -330 c0 -29 -4 -40 -15 -40 -17 0 -18 4 -9 49 9 44 24 39 24 -9z"></path>
<path d="M3153 2845 c-3 -9 -3 -18 0 -21 9 -9 48 16 42 27 -9 14 -35 11 -42
-6z"></path>
<path d="M4430 2798 c-41 -27 -82 -53 -90 -58 -8 -5 -12 -12 -8 -15 6 -6 198
111 198 121 0 13 -34 -3 -100 -48z"></path>
<path d="M2190 2818 c-11 -12 -20 -25 -20 -30 0 -4 32 -8 70 -8 64 0 71 2 79
23 13 32 6 37 -54 37 -43 0 -58 -5 -75 -22z"></path>
<path d="M4910 2816 c0 -21 5 -24 61 -30 112 -11 149 -8 149 12 0 34 -21 42
-117 42 -91 0 -93 0 -93 -24z"></path>
<path d="M3275 2810 c10 -11 20 -18 23 -15 7 6 -18 35 -31 35 -5 0 -2 -9 8
-20z"></path>
<path d="M3635 2800 c-18 -35 -10 -38 22 -8 13 12 23 17 23 11 0 -6 -5 -13
-11 -15 -10 -3 -2 -38 10 -38 3 0 11 11 17 25 10 21 9 26 -12 40 -31 20 -31
20 -49 -15z"></path>
<path d="M5340 2805 c0 -8 5 -15 10 -15 6 0 10 7 10 15 0 8 -4 15 -10 15 -5 0
-10 -7 -10 -15z"></path>
<path d="M3429 2794 c-10 -13 -10 -17 1 -24 8 -5 19 -6 24 -3 6 4 5 8 -2 11
-7 2 -12 9 -12 15 1 7 9 2 19 -10 20 -25 36 -29 46 -13 3 5 -8 16 -24 25 -37
19 -36 19 -52 -1z"></path>
<path d="M3200 2790 c0 -5 5 -20 11 -34 9 -19 9 -29 0 -40 -10 -12 -3 -26 39
-78 28 -35 67 -85 86 -113 19 -27 41 -60 50 -72 9 -12 17 -30 18 -40 2 -12 13
-19 36 -21 24 -3 31 0 28 10 -3 7 -56 84 -117 171 -61 86 -111 160 -111 163 0
3 -7 12 -16 21 -8 9 -13 22 -10 29 3 8 1 14 -4 14 -6 0 -10 -4 -10 -10z"></path>
<path d="M3733 2783 c-16 -6 -17 -39 -2 -49 8 -4 9 0 4 15 -4 15 -1 23 10 27
23 9 31 -4 17 -26 -13 -22 -12 -23 12 -14 9 3 16 14 16 24 0 24 -28 35 -57 23z"></path>
<path d="M4720 2787 c0 -2 10 -23 21 -47 20 -41 22 -43 35 -25 19 26 26 14 13
-24 -11 -31 -6 -81 9 -81 4 0 14 4 22 10 12 7 13 18 3 64 -14 65 -42 114 -54
94 -7 -11 -12 -11 -29 0 -11 7 -20 11 -20 9z"></path>
<path d="M3235 2770 c-3 -5 1 -10 10 -10 9 0 13 5 10 10 -3 6 -8 10 -10 10 -2
0 -7 -4 -10 -10z"></path>
<path d="M3517 2758 c-7 -23 21 -37 34 -17 12 19 7 32 -13 35 -9 1 -19 -7 -21
-18z"></path>
<path d="M3320 2761 c0 -5 5 -13 10 -16 6 -3 10 -2 10 4 0 5 -4 13 -10 16 -5
3 -10 2 -10 -4z"></path>
<path d="M3580 2739 c0 -11 5 -17 10 -14 6 3 10 13 10 21 0 8 -4 14 -10 14 -5
0 -10 -9 -10 -21z"></path>
<path d="M3812 2739 c-11 -18 -11 -23 5 -35 21 -16 33 -18 33 -5 0 5 -8 12
-17 15 -12 5 -14 9 -5 18 7 7 12 16 12 20 0 15 -15 8 -28 -13z"></path>
<path d="M4674 2745 c-17 -13 -17 -14 -2 -15 9 0 20 5 23 11 11 17 0 20 -21 4z"></path>
<path d="M5330 2740 c0 -11 5 -20 10 -20 6 0 10 9 10 20 0 11 -4 20 -10 20 -5
0 -10 -9 -10 -20z"></path>
<path d="M4220 2741 c0 -17 48 -67 56 -58 4 4 -1 19 -12 34 -22 29 -44 41 -44
24z"></path>
<path d="M2167 2733 c-18 -3 -32 -15 -42 -34 -18 -35 -16 -35 81 -18 47 8 63
15 67 29 3 10 2 21 -1 24 -6 6 -60 6 -105 -1z"></path>
<path d="M3616 2724 c-8 -22 -8 -24 8 -24 12 0 26 20 26 36 0 12 -29 2 -34
-12z"></path>
<path d="M3885 2714 c-20 -30 -19 -31 24 -39 22 -4 30 -2 26 5 -4 6 1 17 11
25 18 13 17 14 -9 24 -36 14 -32 15 -52 -15z"></path>
<path d="M2446 2705 c4 -8 10 -12 15 -9 11 6 2 24 -11 24 -5 0 -7 -7 -4 -15z"></path>
<path d="M2640 2711 c0 -5 8 -11 18 -14 60 -18 229 -80 236 -88 5 -5 4 -14 -3
-23 -7 -9 -11 -21 -9 -27 2 -6 12 1 22 15 16 26 16 29 1 46 -16 18 -222 100
-250 100 -8 0 -15 -4 -15 -9z"></path>
<path d="M3655 2711 c-10 -17 31 -33 44 -17 9 10 8 15 -5 20 -22 8 -32 8 -39
-3z"></path>
<path d="M3976 2693 c-3 -10 -9 -24 -12 -32 -4 -8 -2 -11 4 -8 5 4 15 0 22 -8
12 -15 35 -11 25 5 -3 4 2 13 10 20 20 17 19 34 -1 26 -9 -4 -22 -2 -29 4 -9
8 -14 6 -19 -7z"></path>
<path d="M3516 2684 c-7 -19 10 -35 34 -31 8 1 15 11 15 22 0 26 -40 33 -49 9z
m34 -9 c0 -8 -4 -15 -10 -15 -5 0 -10 7 -10 15 0 8 5 15 10 15 6 0 10 -7 10
-15z"></path>
<path d="M3734 2686 c-8 -21 4 -35 15 -17 10 16 31 6 31 -15 0 -8 7 -14 16
-14 8 0 12 5 9 10 -3 6 -1 10 4 10 20 0 11 18 -11 23 -13 2 -31 8 -40 12 -12
5 -20 2 -24 -9z"></path>
<path d="M2548 2668 c3 -14 1 -19 -6 -14 -6 3 -13 2 -16 -3 -6 -8 15 -21 34
-21 5 0 8 14 8 30 -1 17 -7 30 -14 30 -8 0 -10 -8 -6 -22z"></path>
<path d="M3390 2671 c0 -5 5 -13 10 -16 6 -3 10 -2 10 4 0 5 -4 13 -10 16 -5
3 -10 2 -10 -4z"></path>
<path d="M3590 2659 c-23 -17 -24 -19 -4 -19 11 0 25 -5 32 -12 9 -9 12 -6 12
14 0 36 -11 40 -40 17z"></path>
<path d="M2440 2665 c0 -11 24 -55 31 -55 17 0 18 33 2 46 -18 13 -33 18 -33
9z"></path>
<path d="M5320 2645 c0 -14 5 -25 10 -25 6 0 10 11 10 25 0 14 -4 25 -10 25
-5 0 -10 -11 -10 -25z"></path>
<path d="M3654 2636 c-2 -22 0 -23 17 -8 19 16 17 32 -4 32 -7 0 -13 -11 -13
-24z"></path>
<path d="M3827 2653 c-13 -12 16 -33 47 -33 20 0 38 -8 50 -22 l19 -21 12 24
c13 23 12 24 -38 41 -57 18 -80 21 -90 11z"></path>
<path d="M3712 2635 c-12 -9 -22 -24 -22 -35 0 -10 -25 -52 -55 -94 -34 -48
-49 -76 -40 -76 8 0 15 4 15 8 0 5 12 22 26 38 14 16 32 43 41 59 8 17 26 45
40 63 29 39 27 59 -5 37z"></path>
<path d="M4700 2639 c0 -5 5 -7 10 -4 6 3 10 8 10 11 0 2 -4 4 -10 4 -5 0 -10
-5 -10 -11z"></path>
<path d="M2137 2628 c-38 -8 -51 -16 -58 -36 -5 -13 -8 -26 -6 -28 2 -2 38 4
80 13 69 15 77 19 77 40 0 26 -12 27 -93 11z"></path>
<path d="M3430 2626 c0 -13 102 -148 108 -142 3 3 -7 23 -21 43 -37 54 -86
110 -87 99z"></path>
<path d="M2525 2610 c4 -6 11 -8 16 -5 14 9 11 15 -7 15 -8 0 -12 -5 -9 -10z"></path>
<path d="M2589 2599 c6 -17 36 -32 131 -65 68 -24 127 -41 132 -38 27 17 -6
39 -117 80 -139 51 -158 54 -146 23z"></path>
<path d="M3802 2590 c15 -23 28 -26 28 -6 0 8 -7 17 -16 20 -24 9 -25 8 -12
-14z"></path>
<path d="M3995 2600 c-3 -5 -2 -10 4 -10 5 0 13 5 16 10 3 6 2 10 -4 10 -5 0
-13 -4 -16 -10z"></path>
<path d="M4900 2600 c0 -5 5 -10 10 -10 6 0 10 5 10 10 0 6 -4 10 -10 10 -5 0
-10 -4 -10 -10z"></path>
<path d="M3755 2580 c3 -5 8 -10 11 -10 2 0 4 5 4 10 0 6 -5 10 -11 10 -5 0
-7 -4 -4 -10z"></path>
<path d="M2490 2576 c0 -2 9 -6 20 -9 11 -3 18 -1 14 4 -5 9 -34 13 -34 5z"></path>
<path d="M3380 2571 c0 -5 4 -11 8 -13 17 -6 103 -138 97 -148 -3 -6 -2 -10 3
-10 6 0 13 -16 16 -35 10 -50 24 -52 22 -2 0 27 -7 47 -18 55 -10 7 -18 18
-18 24 0 10 -98 138 -106 138 -2 0 -4 -4 -4 -9z"></path>
<path d="M3858 2558 c-19 -19 -10 -26 9 -7 12 12 33 4 33 -12 0 -6 -5 -7 -12
-3 -7 4 -8 3 -4 -4 8 -13 46 -16 46 -4 0 13 -24 39 -40 44 -8 2 -23 -4 -32
-14z"></path>
<path d="M4020 2572 c0 -11 13 -16 33 -13 4 0 7 -3 7 -9 0 -5 6 -7 14 -4 8 3
17 0 21 -5 3 -6 11 -9 16 -6 5 4 9 2 9 -3 0 -6 6 -12 14 -15 10 -4 13 2 12 18
0 13 -5 21 -9 18 -5 -3 -14 3 -22 13 -11 15 -16 17 -26 7 -7 -7 -17 -13 -22
-13 -4 0 -5 6 -1 13 6 9 5 9 -7 0 -12 -10 -18 -10 -27 -1 -9 9 -12 9 -12 0z"></path>
<path d="M5310 2555 c0 -14 5 -25 10 -25 6 0 10 11 10 25 0 14 -4 25 -10 25
-5 0 -10 -11 -10 -25z"></path>
<path d="M4745 2550 c-19 -8 -19 -9 3 -9 12 -1 22 4 22 9 0 6 -1 10 -2 9 -2 0
-12 -4 -23 -9z"></path>
<path d="M3963 2531 c1 -15 4 -17 18 -8 19 12 16 27 -6 27 -8 0 -13 -8 -12
-19z"></path>
<path d="M2108 2523 c-48 -12 -58 -19 -67 -44 -7 -21 -7 -29 2 -29 29 0 162
49 161 59 -2 27 -5 31 -21 30 -10 -1 -44 -8 -75 -16z"></path>
<path d="M2287 2472 c-19 -76 -22 -142 -8 -142 5 0 12 37 16 83 4 45 12 85 17
88 7 4 7 13 1 23 -7 13 -13 1 -26 -52z"></path>
<path d="M4910 2465 c0 -43 4 -75 10 -75 6 0 10 32 10 75 0 43 -4 75 -10 75
-6 0 -10 -32 -10 -75z"></path>
<path d="M4748 2481 c-43 -42 -25 -100 27 -87 26 7 35 39 15 51 -6 4 -8 15 -5
25 8 24 -16 31 -37 11z m28 -52 c10 -17 -13 -36 -27 -22 -12 12 -4 33 11 33 5
0 12 -5 16 -11z"></path>
<path d="M5300 2480 c0 -11 5 -20 10 -20 6 0 10 9 10 20 0 11 -4 20 -10 20 -5
0 -10 -9 -10 -20z"></path>
<path d="M2458 2473 c6 -2 18 -2 25 0 6 3 1 5 -13 5 -14 0 -19 -2 -12 -5z"></path>
<path d="M4080 2440 c0 -5 23 -10 50 -10 28 0 50 5 50 10 0 6 -22 10 -50 10
-27 0 -50 -4 -50 -10z"></path>
<path d="M2090 2416 c-51 -18 -67 -28 -74 -49 -6 -15 -7 -29 -5 -32 3 -3 35 6
70 20 111 44 108 42 102 64 -6 25 -11 25 -93 -3z"></path>
<path d="M2331 2431 c-15 -10 -38 -178 -28 -205 6 -15 9 -15 37 -1 31 16 44
52 15 41 -18 -7 -41 35 -32 58 10 25 27 19 27 -9 0 -36 26 -21 33 18 3 18 9
47 13 65 4 21 3 32 -5 32 -6 0 -11 -10 -11 -23 0 -26 -17 -47 -38 -47 -11 0
-12 3 -3 14 17 21 10 68 -8 57z"></path>
<path d="M3920 2430 c0 -5 20 -10 45 -10 25 0 45 5 45 10 0 6 -20 10 -45 10
-25 0 -45 -4 -45 -10z"></path>
<path d="M3790 2420 c0 -5 25 -10 55 -10 30 0 55 5 55 10 0 6 -25 10 -55 10
-30 0 -55 -4 -55 -10z"></path>
<path d="M4660 2421 c-14 -8 -210 -31 -275 -33 -16 0 -55 4 -87 10 -58 11 -98
7 -98 -10 0 -6 6 -8 14 -5 16 6 77 -13 99 -31 8 -7 22 -10 31 -6 9 3 22 2 29
-4 6 -5 28 -12 47 -15 48 -7 62 -14 84 -44 16 -21 17 -29 7 -45 -10 -17 -9
-23 5 -40 14 -15 15 -21 5 -27 -23 -15 -9 -54 24 -63 41 -10 50 2 49 70 0 75
-23 118 -74 138 -22 9 -40 22 -40 29 0 15 63 27 150 29 62 1 65 2 65 25 0 27
-12 35 -35 22z"></path>
<path d="M3623 2395 c-3 -9 -3 -19 1 -22 8 -9 37 18 30 28 -8 14 -24 11 -31
-6z"></path>
<path d="M3557 2384 c-8 -8 1 -24 14 -24 5 0 9 7 9 15 0 15 -12 20 -23 9z"></path>
<path d="M2420 2370 c0 -5 12 -10 26 -10 14 0 23 4 19 10 -3 6 -15 10 -26 10
-10 0 -19 -4 -19 -10z"></path>
<path d="M3870 2370 c0 -5 11 -10 25 -10 14 0 25 5 25 10 0 6 -11 10 -25 10
-14 0 -25 -4 -25 -10z"></path>
<path d="M4075 2368 c-49 -13 -53 -17 -35 -28 24 -15 -27 -63 -60 -56 -14 2
-42 -3 -64 -12 l-39 -17 54 -10 54 -10 3 -58 c3 -51 6 -58 27 -63 19 -5 30 1
50 24 15 18 39 32 61 37 52 9 28 28 -25 19 -29 -5 -47 -14 -58 -30 -8 -13 -19
-24 -24 -24 -19 0 -8 76 16 115 13 22 29 50 34 63 6 12 17 22 24 22 8 0 22 9
32 20 21 23 14 24 -50 8z"></path>
<path d="M3750 2360 c0 -5 11 -10 25 -10 14 0 25 5 25 10 0 6 -11 10 -25 10
-14 0 -25 -4 -25 -10z"></path>
<path d="M3598 2338 c-33 -16 -108 -98 -108 -119 0 -4 17 -13 38 -18 24 -7 51
-26 78 -58 l42 -47 41 27 c33 22 41 33 41 57 0 17 -2 30 -4 30 -2 0 -23 -10
-46 -22 l-41 -22 -24 29 c-13 17 -24 32 -25 35 0 10 62 40 84 40 12 0 33 -11
46 -25 24 -25 73 -34 85 -15 3 6 19 10 36 10 53 0 30 18 -28 23 -60 5 -133 26
-133 39 0 5 18 8 40 8 22 0 40 5 40 11 0 7 -19 9 -59 4 -53 -6 -60 -5 -63 12
-3 18 -4 18 -40 1z"></path>
<path d="M3958 2353 c-16 -2 -28 -9 -28 -14 0 -14 40 -10 56 6 9 8 12 14 7 14
-4 -1 -20 -4 -35 -6z"></path>
<path d="M3371 2334 c0 -11 3 -14 6 -6 3 7 2 16 -1 19 -3 4 -6 -2 -5 -13z"></path>
<path d="M3450 2340 c0 -5 5 -10 10 -10 6 0 10 5 10 10 0 6 -4 10 -10 10 -5 0
-10 -4 -10 -10z"></path>
<path d="M5280 2335 c0 -8 5 -15 10 -15 6 0 10 7 10 15 0 8 -4 15 -10 15 -5 0
-10 -7 -10 -15z"></path>
<path d="M2075 2310 c-61 -25 -71 -32 -78 -60 -4 -18 -6 -34 -4 -37 3 -2 46
16 95 41 77 39 89 48 85 66 -7 25 -12 24 -98 -10z"></path>
<path d="M3810 2330 c0 -5 14 -10 30 -10 17 0 30 5 30 10 0 6 -13 10 -30 10
-16 0 -30 -4 -30 -10z"></path>
<path d="M4753 2333 c9 -2 23 -2 30 0 6 3 -1 5 -18 5 -16 0 -22 -2 -12 -5z"></path>
<path d="M4900 2325 c0 -8 5 -15 10 -15 6 0 10 7 10 15 0 8 -4 15 -10 15 -5 0
-10 -7 -10 -15z"></path>
<path d="M4597 2324 c-12 -12 4 -24 34 -24 34 0 39 15 7 24 -29 7 -33 7 -41 0z"></path>
<path d="M3370 2292 c0 -9 12 -11 50 -6 28 4 50 3 50 -1 0 -12 -33 -34 -53
-35 -10 0 -20 -7 -23 -15 -6 -16 12 -45 27 -45 9 0 79 102 79 114 0 3 -29 5
-65 3 -45 -1 -65 -6 -65 -15z"></path>
<path d="M2595 2273 c-61 -8 -106 -20 -115 -29 -14 -14 -9 -15 50 -9 36 4 107
13 159 21 52 7 98 11 102 8 5 -2 11 -20 15 -39 8 -45 24 -45 24 -2 0 69 -41
78 -235 50z"></path>
<path d="M4890 2270 c0 -5 5 -10 10 -10 6 0 10 5 10 10 0 6 -4 10 -10 10 -5 0
-10 -4 -10 -10z"></path>
<path d="M2413 2263 c9 -2 23 -2 30 0 6 3 -1 5 -18 5 -16 0 -22 -2 -12 -5z"></path>
<path d="M5270 2260 c0 -5 5 -10 10 -10 6 0 10 5 10 10 0 6 -4 10 -10 10 -5 0
-10 -4 -10 -10z"></path>
<path d="M4730 2230 c0 -5 11 -10 25 -10 14 0 25 5 25 10 0 6 -11 10 -25 10
-14 0 -25 -4 -25 -10z"></path>
<path d="M2397 2223 c-11 -10 -8 -51 3 -58 8 -5 7 -11 -1 -21 -10 -12 -8 -19
9 -37 14 -13 25 -18 30 -12 14 16 35 103 29 120 -6 15 -57 21 -70 8z m43 -23
c0 -12 -28 -25 -36 -17 -9 9 6 27 22 27 8 0 14 -5 14 -10z"></path>
<path d="M4877 2208 c-6 -21 -2 -36 7 -27 10 11 16 49 8 49 -5 0 -12 -10 -15
-22z"></path>
<path d="M5260 2205 c0 -8 5 -15 10 -15 6 0 10 7 10 15 0 8 -4 15 -10 15 -5 0
-10 -7 -10 -15z"></path>
<path d="M2655 2184 c-200 -26 -187 -23 -179 -47 12 -39 23 -46 52 -36 15 5
80 15 145 23 65 7 120 16 124 20 10 9 -15 56 -29 55 -7 -1 -58 -7 -113 -15z
m-70 -44 c-3 -5 -17 -10 -31 -10 -13 0 -24 5 -24 10 0 6 14 10 31 10 17 0 28
-4 24 -10z"></path>
<path d="M2314 2120 c9 -65 27 -113 33 -87 3 10 0 32 -6 49 -6 17 -11 44 -11
59 0 16 -5 29 -11 29 -8 0 -9 -16 -5 -50z"></path>
<path d="M4860 2144 c0 -8 5 -12 10 -9 6 3 10 10 10 16 0 5 -4 9 -10 9 -5 0
-10 -7 -10 -16z"></path>
<path d="M5250 2145 c0 -8 5 -15 10 -15 6 0 10 7 10 15 0 8 -4 15 -10 15 -5 0
-10 -7 -10 -15z"></path>
<path d="M3370 2118 c-12 -22 -12 -22 6 -6 10 10 15 20 12 24 -4 3 -12 -5 -18
-18z"></path>
<path d="M3440 2101 c-12 -17 -17 -31 -11 -31 13 0 46 48 38 56 -2 3 -15 -9
-27 -25z"></path>
<path d="M4088 2108 c-16 -5 -28 -16 -28 -24 0 -18 14 -18 30 1 7 8 25 15 40
15 35 0 57 -24 40 -44 -6 -8 -21 -17 -33 -19 -19 -3 -20 -5 -5 -11 27 -12 73
15 76 47 3 21 -2 29 -23 37 -32 12 -61 12 -97 -2z"></path>
<path d="M4430 2100 c0 -4 7 -11 16 -14 22 -9 26 -8 22 6 -5 13 -38 20 -38 8z"></path>
<path d="M5222 2006 c-13 -57 -26 -114 -29 -127 -4 -17 -3 -21 5 -14 7 6 23
61 37 122 28 126 28 123 17 123 -4 0 -18 -47 -30 -104z"></path>
<path d="M4000 2086 c0 -3 4 -16 9 -29 10 -26 77 -71 86 -57 3 4 -11 18 -31
29 -20 12 -38 30 -41 41 -5 17 -23 29 -23 16z"></path>
<path d="M4837 2084 c-4 -4 -7 -14 -7 -23 0 -11 3 -12 11 -4 6 6 10 16 7 23
-2 6 -7 8 -11 4z"></path>
<path d="M2415 2060 c-18 -8 -17 -9 7 -9 15 -1 30 4 33 9 7 12 -12 12 -40 0z"></path>
<path d="M4258 2058 c-9 -7 -18 -25 -22 -39 -5 -24 -3 -27 29 -33 19 -4 48
-18 64 -31 35 -30 43 -31 39 -5 -2 14 5 25 22 33 37 19 38 52 1 71 -36 19
-111 21 -133 4z m118 -29 c13 -11 13 -14 0 -27 -13 -13 -22 -13 -55 -3 -43 13
-56 25 -45 42 8 14 79 6 100 -12z"></path>
<path d="M4479 2013 c-18 -32 -41 -68 -52 -80 -16 -18 -17 -23 -5 -23 18 0 50
35 70 75 8 17 22 42 32 58 16 23 16 27 3 27 -9 0 -30 -26 -48 -57z"></path>
<path d="M3052 2038 c-19 -19 -15 -26 21 -34 43 -11 49 -12 105 -35 21 -8 23
-7 20 13 -2 17 -15 26 -55 38 -29 9 -55 19 -59 23 -10 10 -18 9 -32 -5z"></path>
<path d="M4690 2020 c0 -5 5 -10 10 -10 6 0 10 5 10 10 0 6 -4 10 -10 10 -5 0
-10 -4 -10 -10z"></path>
<path d="M3224 1968 c-4 -6 0 -14 7 -19 24 -14 1 -22 -32 -10 -17 6 -35 8 -40
5 -12 -7 -12 -25 0 -21 5 1 18 -9 30 -22 12 -13 23 -22 24 -20 2 2 17 24 34
49 l31 45 -24 1 c-13 1 -27 -3 -30 -8z"></path>
<path d="M2448 1963 c-28 -7 -21 -21 7 -15 14 2 25 8 25 13 0 9 -4 10 -32 2z"></path>
<path d="M3097 1963 c-4 -3 -7 -12 -7 -20 0 -19 35 -16 51 4 13 15 12 16 -9
11 -12 -4 -20 -2 -16 3 6 10 -9 12 -19 2z"></path>
<path d="M2779 1897 c-158 -100 -169 -107 -169 -115 0 -24 22 -14 142 64 72
46 135 84 140 84 4 0 18 -16 30 -35 24 -37 38 -44 38 -21 0 25 -50 76 -74 76
-13 0 -61 -24 -107 -53z"></path>
<path d="M3295 1941 c-7 -12 29 -33 39 -24 3 3 6 12 6 20 0 15 -36 18 -45 4z"></path>
<path d="M4752 1910 c-12 -16 -22 -32 -22 -35 0 -4 -11 -21 -25 -39 -14 -18
-25 -36 -25 -41 0 -10 60 71 83 113 23 40 18 41 -11 2z"></path>
<path d="M3400 1900 c17 -11 57 -14 46 -3 -4 4 -19 9 -34 10 -21 3 -24 1 -12
-7z"></path>
<path d="M3256 1892 c-9 -8 14 -32 30 -32 21 0 17 27 -5 33 -11 3 -22 2 -25
-1z"></path>
<path d="M3481 1869 c22 -22 35 -20 26 6 -4 8 -16 15 -27 15 -20 0 -20 0 1
-21z"></path>
<path d="M2290 1870 c0 -17 34 -77 94 -170 61 -92 223 -243 316 -295 22 -12
12 -3 -55 50 -134 107 -275 270 -320 373 -19 43 -35 63 -35 42z"></path>
<path d="M4784 1865 c-8 -20 7 -37 77 -91 55 -42 58 -43 78 -26 22 17 21 17
-58 75 -44 31 -82 57 -86 57 -3 0 -8 -7 -11 -15z"></path>
<path d="M2480 1860 c-13 -9 -13 -10 0 -10 8 0 22 5 30 10 13 9 13 10 0 10 -8
0 -22 -5 -30 -10z"></path>
<path d="M3355 1859 c-4 -6 -5 -13 -2 -16 7 -7 27 6 27 18 0 12 -17 12 -25 -2z"></path>
<path d="M3540 1861 c0 -14 39 -43 49 -37 5 3 16 -1 24 -9 9 -8 20 -15 25 -15
15 0 23 28 11 36 -20 12 -109 32 -109 25z"></path>
<path d="M3390 1846 c0 -15 48 -31 59 -21 7 8 -28 35 -46 35 -7 0 -13 -6 -13
-14z"></path>
<path d="M2820 1785 c-52 -35 -104 -71 -115 -79 l-20 -15 20 -1 c25 0 237 139
229 151 -8 14 -13 12 -114 -56z"></path>
<path d="M5110 1841 c0 -12 62 -41 94 -42 11 0 15 -3 9 -6 -7 -2 -13 -13 -13
-24 0 -10 -7 -19 -15 -19 -8 0 -15 -8 -15 -18 0 -30 -10 -32 -62 -12 -29 11
-48 14 -45 7 2 -6 17 -15 35 -21 17 -6 37 -19 45 -30 13 -18 15 -17 36 18 13
20 27 36 32 36 19 0 8 -34 -27 -87 -28 -42 -34 -60 -29 -82 7 -31 30 -47 41
-29 4 7 3 8 -4 4 -8 -5 -12 3 -12 23 0 16 5 33 10 36 6 3 10 1 10 -6 0 -7 3
-9 6 -6 4 4 1 13 -5 21 -10 11 -8 17 10 29 11 9 18 20 14 26 -3 7 6 32 20 57
33 57 25 85 -32 110 -52 22 -103 29 -103 15z"></path>
<path d="M2414 1824 c3 -9 6 -18 6 -20 0 -2 9 -4 20 -4 12 0 25 -10 32 -25 12
-26 28 -34 28 -14 0 13 -69 79 -83 79 -5 0 -6 -7 -3 -16z"></path>
<path d="M3462 1825 c3 -20 38 -29 38 -10 0 6 -6 10 -12 10 -7 0 -17 5 -21 10
-5 6 -7 1 -5 -10z"></path>
<path d="M2360 1821 c0 -6 4 -13 10 -16 6 -3 7 1 4 9 -7 18 -14 21 -14 7z"></path>
<path d="M3660 1804 c0 -9 5 -14 12 -12 18 6 21 28 4 28 -9 0 -16 -7 -16 -16z"></path>
<path d="M3517 1803 c-15 -15 -5 -25 18 -19 19 5 25 2 25 -10 0 -13 3 -14 15
-4 15 12 11 35 -5 25 -5 -3 -11 -1 -15 5 -7 11 -28 13 -38 3z"></path>
<path d="M4719 1768 c-6 -13 -25 -35 -42 -49 -17 -14 -26 -28 -20 -32 5 -3 25
9 43 28 19 19 38 35 43 35 6 0 34 -20 63 -45 28 -25 58 -45 65 -45 17 0 -10
29 -81 84 l-59 47 -12 -23z"></path>
<path d="M2530 1768 c-16 -7 -20 -12 -12 -15 8 -3 21 2 30 11 19 18 17 19 -18
4z"></path>
<path d="M4647 1763 c-4 -3 -7 -11 -7 -17 0 -6 5 -5 12 2 6 6 9 14 7 17 -3 3
-9 2 -12 -2z"></path>
<path d="M2410 1742 c6 -13 14 -21 18 -18 3 4 -2 14 -12 24 -18 16 -18 16 -6
-6z"></path>
<path d="M2566 1733 c-3 -4 -6 -11 -6 -17 0 -6 5 -4 10 4 9 13 12 12 25 -4 22
-29 18 -42 -5 -21 -11 10 -20 14 -20 10 0 -5 -5 -4 -11 2 -6 6 -17 9 -25 6 -9
-3 3 -21 35 -54 26 -27 50 -49 53 -49 7 0 3 33 -6 48 -4 7 -1 12 9 12 8 0 20
-10 25 -22 l9 -23 0 22 c1 12 6 25 11 28 20 12 -29 59 -65 62 -18 1 -36 -1
-39 -4z"></path>
<path d="M3980 1719 c0 -11 20 -44 45 -72 93 -108 135 -161 135 -169 0 -13 53
3 76 23 11 11 27 19 35 19 8 0 21 5 29 10 13 9 13 11 0 20 -8 5 -22 7 -31 4
-10 -2 -19 2 -23 12 -5 14 -10 13 -40 -5 -18 -12 -36 -21 -39 -21 -3 0 -42 45
-88 100 -45 55 -86 100 -91 100 -4 0 -8 -9 -8 -21z"></path>
<path d="M3154 1683 c-11 -15 -26 -44 -34 -63 -7 -19 -19 -42 -26 -50 -7 -8
-17 -28 -23 -43 -15 -39 6 -25 26 17 7 17 30 58 49 90 37 63 43 96 8 49z"></path>
<path d="M2450 1691 c0 -5 5 -13 10 -16 6 -3 10 -2 10 4 0 5 -4 13 -10 16 -5
3 -10 2 -10 -4z"></path>
<path d="M5035 1670 c7 -12 95 -40 95 -31 0 5 -8 11 -17 14 -10 3 -33 10 -51
16 -18 5 -30 6 -27 1z"></path>
<path d="M3217 1613 c-19 -32 -52 -89 -72 -128 -20 -38 -38 -71 -39 -73 -2 -1
-18 3 -36 9 -28 10 -34 9 -42 -5 -5 -9 -15 -16 -22 -16 -8 0 -19 -7 -26 -15
-9 -10 -9 -15 -1 -15 6 0 11 5 11 10 0 19 27 10 55 -20 31 -32 48 -39 39 -15
-4 9 0 15 10 15 9 0 16 -4 16 -10 0 -5 4 -10 8 -10 4 0 6 16 4 35 -3 22 1 42
10 53 8 9 36 55 63 102 26 47 55 93 63 103 11 12 12 21 5 28 -7 7 -21 -7 -46
-48z"></path>
<path d="M4602 1636 c-23 -12 -22 -13 57 -102 45 -49 85 -90 89 -92 9 -3 32
41 32 58 0 14 -131 150 -144 150 -6 -1 -21 -6 -34 -14z"></path>
<path d="M3572 1510 c4 -104 10 -144 21 -129 8 11 -6 249 -15 249 -7 0 -9 -42
-6 -120z"></path>
<path d="M2651 1591 c-13 -10 -19 -21 -14 -24 6 -4 21 5 33 18 27 29 16 33
-19 6z"></path>
<path d="M3670 1490 c0 -53 4 -90 10 -90 6 0 10 37 10 90 0 53 -4 90 -10 90
-6 0 -10 -37 -10 -90z"></path>
<path d="M4430 1550 c-19 -17 -30 -30 -25 -30 6 0 26 14 45 30 19 16 31 29 25
29 -5 0 -26 -13 -45 -29z"></path>
<path d="M4515 1556 c-17 -12 -14 -18 48 -98 90 -115 92 -117 111 -79 l16 30
-67 80 c-37 45 -72 81 -78 81 -6 0 -20 -6 -30 -14z"></path>
<path d="M5257 1554 c-4 -4 -7 -14 -7 -23 0 -11 3 -12 11 -4 6 6 10 16 7 23
-2 6 -7 8 -11 4z"></path>
<path d="M2660 1541 c0 -11 53 -51 67 -51 4 0 16 12 27 26 l19 26 -27 -17
c-26 -17 -28 -17 -50 4 -24 23 -36 27 -36 12z"></path>
<path d="M4980 1537 c0 -12 64 -37 95 -37 8 0 15 -4 15 -10 0 -5 7 -10 16 -10
12 0 15 -6 10 -22 -3 -13 -6 -31 -6 -42 0 -19 -18 -19 -106 -1 -29 6 -34 2
-104 -87 -41 -51 -245 -266 -455 -478 -356 -360 -468 -480 -607 -655 -51 -65
-84 -115 -75 -115 2 0 60 69 128 153 88 109 242 270 539 567 267 267 441 448
485 508 38 50 75 92 82 92 7 0 30 -7 50 -15 26 -10 47 -12 68 -6 27 7 30 11
27 47 -1 21 2 51 7 66 9 26 8 27 -20 24 -17 -2 -53 5 -80 15 -58 22 -69 23
-69 6z"></path>
<path d="M5095 1540 c3 -5 8 -10 11 -10 2 0 4 5 4 10 0 6 -5 10 -11 10 -5 0
-7 -4 -4 -10z"></path>
<path d="M2776 1512 c-8 -14 128 -111 136 -98 13 19 9 24 -47 58 -30 18 -55
36 -55 40 0 11 -28 10 -34 0z"></path>
<path d="M2940 1489 c0 -5 5 -7 10 -4 6 3 10 8 10 11 0 2 -4 4 -10 4 -5 0 -10
-5 -10 -11z"></path>
<path d="M4417 1479 c-16 -9 -12 -18 39 -92 32 -45 65 -92 75 -105 l17 -23 21
30 21 29 -61 86 c-61 85 -77 96 -112 75z"></path>
<path d="M2740 1476 c0 -2 7 -7 16 -10 8 -3 12 -2 9 4 -6 10 -25 14 -25 6z"></path>
<path d="M2818 1433 c7 -3 16 -2 19 1 4 3 -2 6 -13 5 -11 0 -14 -3 -6 -6z"></path>
<path d="M2940 1405 c-7 -9 -11 -17 -9 -20 3 -2 10 5 17 15 14 24 10 26 -8 5z"></path>
<path d="M4317 1413 c-10 -3 -17 -8 -15 -11 20 -44 125 -211 131 -209 5 1 15
14 24 28 15 24 13 29 -38 112 -52 85 -60 91 -102 80z"></path>
<path d="M3629 1363 c-47 -4 -47 -4 -46 -39 l1 -35 65 7 c60 6 110 24 68 24
-10 0 -22 11 -27 25 -5 14 -11 24 -12 23 -2 -1 -24 -3 -49 -5z"></path>
<path d="M4211 1351 c-12 -8 -6 -28 37 -115 28 -58 55 -106 60 -106 15 0 44
38 40 52 -2 7 -22 50 -46 96 -42 82 -57 94 -91 73z"></path>
<path d="M3200 1314 c0 -15 26 -19 34 -5 3 5 -3 11 -14 14 -13 3 -20 0 -20 -9z"></path>
<path d="M3760 1320 c0 -5 5 -10 10 -10 6 0 10 5 10 10 0 6 -4 10 -10 10 -5 0
-10 -4 -10 -10z"></path>
<path d="M3260 1304 c0 -6 24 -11 55 -12 72 -1 72 15 0 20 -34 2 -55 -1 -55
-8z"></path>
<path d="M4120 1303 c-8 -2 -21 -7 -29 -9 -9 -3 -10 -8 -4 -17 5 -6 29 -58 53
-115 l43 -104 25 26 26 25 -38 85 c-45 99 -56 115 -76 109z"></path>
<path d="M4000 1251 c0 -5 4 -12 9 -16 5 -3 19 -34 31 -70 12 -36 30 -75 41
-87 l20 -23 -6 22 c-22 79 -65 178 -79 181 -9 2 -16 -1 -16 -7z"></path>
<path d="M2077 1138 c-42 -128 -40 -134 36 -158 46 -15 286 -114 329 -136 26
-13 26 -15 14 -61 -6 -27 -11 -55 -11 -63 1 -16 -22 -70 -30 -70 -3 0 -22 10
-43 23 -20 13 -66 34 -102 46 -36 13 -74 27 -85 31 -11 5 -60 23 -110 41 -49
17 -104 38 -120 45 -17 7 -43 18 -59 24 -23 8 -26 13 -16 25 8 10 8 19 1 34
-6 11 -11 36 -11 55 0 21 -5 36 -12 36 -8 0 -9 -26 -5 -93 3 -51 9 -100 12
-109 4 -9 39 -31 78 -49 40 -18 80 -41 90 -50 18 -17 18 -17 -1 -23 -11 -4
-27 -16 -37 -26 -15 -17 -16 -23 -6 -33 9 -8 15 -9 17 -1 3 6 72 -17 172 -57
127 -51 166 -71 164 -83 -4 -21 15 -20 26 2 5 9 15 41 23 69 12 51 12 53 -11
73 -17 14 -19 20 -8 20 9 0 21 -7 28 -15 7 -8 16 -13 20 -10 8 5 179 -61 193
-74 4 -4 1 -23 -7 -42 -8 -19 -17 -50 -20 -69 -14 -73 -16 -76 -46 -60 -35 19
-43 6 -11 -18 26 -19 32 -20 44 -7 8 8 18 11 22 7 5 -4 6 0 2 10 -3 9 2 23 12
32 15 14 24 12 96 -19 44 -19 81 -35 82 -35 2 0 3 -9 3 -21 0 -12 4 -17 11
-14 6 4 8 9 5 12 -3 3 2 19 10 35 16 30 12 48 -11 48 -21 0 -142 57 -151 72
-10 16 -14 39 -8 49 4 8 159 -55 181 -73 10 -8 13 -6 13 5 0 23 -45 50 -125
76 -38 12 -72 26 -75 30 -3 4 -41 22 -85 41 -44 18 -83 36 -88 40 -9 8 85 70
105 70 8 0 29 -5 47 -11 26 -9 29 -14 20 -26 -9 -10 -9 -17 -1 -25 8 -8 14 -5
20 13 23 60 24 69 7 69 -28 0 -111 48 -153 88 -29 28 -83 58 -189 104 -81 36
-164 71 -184 78 -20 7 -46 20 -57 29 -21 16 -21 16 -2 41 l19 25 83 -28 c46
-16 132 -55 191 -87 70 -38 110 -55 113 -47 9 24 22 112 18 117 -3 2 -9 -2
-15 -10 -8 -13 -11 -13 -22 0 -12 16 -73 40 -98 40 -20 0 -141 52 -159 68 -8
7 -31 21 -50 30 -27 13 -34 22 -32 40 2 12 -1 22 -5 22 -5 0 -25 -50 -46 -112z"></path>
<path d="M3065 1178 c-43 -188 -44 -202 -14 -219 12 -6 25 -7 29 -2 7 6 50
213 50 236 0 4 -13 7 -30 7 -23 0 -31 -5 -35 -22z"></path>
<path d="M3194 1172 c-10 -7 -34 -142 -34 -195 0 -20 7 -31 25 -39 14 -6 27
-9 30 -7 2 3 9 50 15 105 6 54 13 109 15 122 4 18 1 22 -17 22 -13 0 -28 -4
-34 -8z"></path>
<path d="M2635 1120 c-3 -5 3 -10 15 -10 12 0 18 5 15 10 -3 6 -10 10 -15 10
-5 0 -12 -4 -15 -10z"></path>
<path d="M2780 951 c0 -15 171 -74 182 -63 6 6 40 -2 101 -25 107 -42 112 -45
99 -69 -5 -11 -12 -37 -16 -59 -6 -35 -5 -38 7 -22 33 40 27 1 -10 -69 -18
-35 -13 -61 14 -70 62 -21 380 -150 404 -164 9 -5 20 -6 23 -3 10 10 7 55 -3
48 -8 -4 -146 47 -353 133 -46 18 -50 42 -9 42 17 0 112 -27 212 -60 101 -33
183 -59 184 -57 6 12 55 164 55 171 0 5 -12 -1 -26 -15 -15 -14 -23 -31 -20
-42 4 -16 0 -17 -25 -12 -30 7 -199 73 -327 127 l-73 31 6 37 c6 36 5 38 -34
53 -21 9 -79 24 -128 32 -48 9 -123 28 -165 41 -85 26 -98 28 -98 15z"></path>
<path d="M2486 891 c-12 -19 147 -102 327 -171 95 -36 98 -41 72 -104 -9 -20
-13 -48 -11 -61 3 -14 0 -39 -6 -56 -13 -39 -5 -47 87 -84 75 -31 118 -66 135
-109 l10 -28 -39 7 -39 6 -7 -41 c-4 -23 -5 -42 -3 -43 1 -1 35 -13 73 -25 39
-13 84 -29 100 -36 66 -27 124 -43 118 -32 -4 6 1 5 10 -3 9 -7 17 -10 17 -5
0 5 5 1 11 -8 5 -10 19 -18 29 -18 11 0 28 -10 39 -21 l20 -22 41 37 c22 20
49 36 60 36 17 0 18 3 10 26 -6 14 -10 36 -10 50 0 15 -7 27 -17 30 -116 39
-418 163 -421 174 -2 6 -10 10 -18 10 -21 0 -194 71 -194 80 0 4 29 22 64 39
61 32 64 32 100 17 34 -14 49 -36 25 -36 -5 0 -7 -4 -4 -10 11 -18 21 -11 33
23 7 18 12 36 12 40 0 4 -28 20 -62 36 -62 28 -138 94 -121 104 4 3 38 -7 73
-22 36 -16 75 -31 88 -35 32 -11 28 12 -5 26 -16 6 -42 17 -60 24 -17 8 -34
14 -39 14 -4 0 -16 8 -26 17 -15 13 -23 15 -37 6 -14 -9 -40 -2 -124 30 -64
25 -107 48 -110 57 -2 9 -32 26 -68 39 -35 12 -78 28 -96 36 -18 8 -35 11 -37
6z"></path>
<path d="M1980 860 c0 -5 5 -10 10 -10 6 0 10 5 10 10 0 6 -4 10 -10 10 -5 0
-10 -4 -10 -10z"></path>
<path d="M4030 655 c-18 -19 -31 -37 -29 -40 3 -2 21 11 39 30 18 19 31 37 29
40 -3 2 -21 -11 -39 -30z"></path>
<path d="M1929 558 c-11 -21 -29 -12 226 -118 83 -35 151 -64 153 -66 2 -1 -4
-26 -13 -56 -20 -68 -9 -78 73 -71 40 4 69 0 96 -11 22 -9 40 -15 41 -14 1 2
7 13 14 25 l11 22 88 -40 c112 -52 114 -53 99 -107 -10 -40 -10 -45 8 -58 13
-9 22 -11 29 -4 15 15 87 12 135 -5 l41 -14 15 29 c9 17 18 30 20 30 2 0 60
-23 127 -50 99 -41 132 -50 170 -48 47 3 46 4 -117 69 -97 39 -168 62 -173 57
-17 -17 -117 37 -152 81 -18 22 -37 41 -41 41 -5 0 -14 -11 -21 -24 l-13 -24
-90 40 c-49 21 -96 46 -102 55 -7 9 -13 14 -13 10 0 -19 -119 47 -152 85 -30
34 -39 39 -51 30 -11 -10 -38 -3 -128 34 -63 25 -149 62 -192 83 -74 35 -79
36 -88 19z"></path>
<path d="M2405 420 c3 -5 13 -10 21 -10 8 0 12 5 9 10 -3 6 -13 10 -21 10 -8
0 -12 -4 -9 -10z"></path>
<path d="M2455 400 c3 -5 13 -10 21 -10 8 0 12 5 9 10 -3 6 -13 10 -21 10 -8
0 -12 -4 -9 -10z"></path>
<path d="M3566 358 c-9 -35 -7 -68 4 -68 6 0 10 13 10 29 0 16 3 36 6 45 3 9
2 16 -4 16 -5 0 -12 -10 -16 -22z"></path>
<path d="M1874 319 c7 -50 6 -53 -26 -79 -18 -16 -31 -30 -28 -33 4 -4 287
-145 332 -165 4 -2 19 22 33 53 31 64 25 64 145 6 69 -33 75 -39 75 -66 0 -30
0 -30 65 -33 59 -2 63 -1 40 11 -17 9 -24 21 -23 35 3 24 -35 55 -58 48 -8 -3
-52 14 -99 37 -66 33 -86 47 -88 65 -3 18 -7 21 -16 13 -10 -8 -25 -5 -57 13
-24 14 -91 43 -149 66 -58 23 -112 50 -122 61 -26 30 -31 23 -24 -32z m283
-235 c-5 -5 -57 13 -57 20 0 3 14 0 31 -6 16 -6 28 -12 26 -14z"></path>
<path d="M3752 253 c-26 -38 -35 -70 -22 -78 6 -4 13 -5 15 -4 5 7 34 109 30
109 -2 0 -12 -12 -23 -27z"></path>
<path d="M2820 255 c0 -2 14 -11 30 -20 17 -9 30 -23 30 -33 0 -14 2 -14 9 -3
8 13 15 12 50 -4 23 -10 44 -16 47 -13 6 7 -59 46 -92 54 -13 3 -27 10 -30 15
-5 9 -44 13 -44 4z"></path>
<path d="M2380 215 c0 -3 20 -14 45 -25 44 -19 55 -33 35 -45 -15 -9 -12 -35
4 -35 15 0 26 21 26 51 0 14 -14 26 -46 39 -46 20 -64 24 -64 15z"></path>
<path d="M3557 203 c-12 -11 -8 -60 6 -71 6 -5 49 -21 95 -35 l83 -26 -3 41
-3 41 -67 23 c-102 34 -104 35 -111 27z"></path>
<path d="M1753 105 c-8 -21 -3 -25 98 -69 61 -26 97 -36 124 -34 35 3 32 5
-67 47 -56 24 -113 50 -126 58 -19 12 -23 12 -29 -2z"></path>
<path d="M2760 45 c0 -10 95 -45 124 -45 l31 1 -40 15 c-80 30 -115 39 -115
29z"></path>
<path d="M3395 10 c-3 -5 -1 -10 4 -10 6 0 11 5 11 10 0 6 -2 10 -4 10 -3 0
-8 -4 -11 -10z"></path>
</g>
</svg>